<svg xmlns="http://www.w3.org/2000/svg" width="25" height="25" viewBox="0 0 25 25">
  <g fill="none" fill-rule="evenodd">
    <rect width="25" height="25" fill="#B61AAE" rx="12.5"/>
    <path fill="#FFFFFF" d="M8,12.422 C8,12.084665 8.08066586,11.8023345 8.242,11.575 C8.40333414,11.3476655 8.61599868,11.234 8.88,11.234 L11.234,11.234 L11.234,8.902 C11.234,8.66733216 11.3513322,8.45833425 11.586,8.275 C11.8206678,8.09166575 12.0993317,8 12.422,8 C12.759335,8 13.0379989,8.09166575 13.258,8.275 C13.4780011,8.45833425 13.588,8.66733216 13.588,8.902 L13.588,11.234 L15.92,11.234 C16.1546678,11.234 16.3673324,11.3513322 16.558,11.586 C16.7486676,11.8206678 16.844,12.0993317 16.844,12.422 C16.844,12.759335 16.7523342,13.0379989 16.569,13.258 C16.3856657,13.4780011 16.1693346,13.588 15.92,13.588 L13.588,13.588 L13.588,15.942 C13.588,16.2060013 13.4816677,16.4186659 13.269,16.58 C13.0563323,16.7413341 12.7740018,16.822 12.422,16.822 C12.084665,16.822 11.8023345,16.7413341 11.575,16.58 C11.3476655,16.4186659 11.234,16.2060013 11.234,15.942 L11.234,13.588 L8.88,13.588 C8.61599868,13.588 8.40333414,13.4816677 8.242,13.269 C8.08066586,13.0563323 8,12.7740018 8,12.422 Z"/>
  </g>
</svg>
