<svg xmlns="http://www.w3.org/2000/svg" width="21" height="15" viewBox="0 0 21 15">
  <path fill="#29CDB5" fill-rule="evenodd" d="M100,206.547244 C100,205.287395 100.444056,204.214571 101.33218,203.32874 C102.220304,202.442909 103.27617,202 104.499808,202 C105.723446,202 106.789179,202.442909 107.69704,203.32874 C108.6049,204.214571 109.058824,205.26771 109.058824,206.488189 C109.058824,207.118113 107.835204,210.267688 105.387928,215.937008 C105.07215,216.645673 104.480076,217 103.611688,217 C102.901188,217 102.230171,216.783467 101.598616,216.350394 C100.967061,215.917321 100.651288,215.366145 100.651288,214.69685 C100.651288,214.381888 100.730231,214.066931 100.88812,213.751969 L102.36832,210.562992 C100.789432,209.657476 100,208.318906 100,206.547244 Z M111.941176,206.547244 C111.941176,205.287395 112.385232,204.214571 113.273356,203.32874 C114.161481,202.442909 115.217346,202 116.440984,202 C117.664622,202 118.730356,202.442909 119.638216,203.32874 C120.546077,204.214571 121,205.26771 121,206.488189 C121,207.118113 119.77638,210.267688 117.329104,215.937008 C117.013327,216.645673 116.421253,217 115.552864,217 C114.842365,217 114.171348,216.783467 113.539792,216.350394 C112.908237,215.917321 112.592464,215.366145 112.592464,214.69685 C112.592464,214.381888 112.671408,214.066931 112.829296,213.751969 L114.309496,210.562992 C112.730609,209.657476 111.941176,208.318906 111.941176,206.547244 Z" transform="rotate(180 60.5 108.5)"/>
</svg>
